<?xml version="1.0" encoding="utf-8"?>
<!-- Generator: Adobe Illustrator 15.0.0, SVG Export Plug-In . SVG Version: 6.00 Build 0)  -->
<!DOCTYPE svg PUBLIC "-//W3C//DTD SVG 1.1//EN" "http://www.w3.org/Graphics/SVG/1.1/DTD/svg11.dtd">
<svg version="1.1" id="Layer_1" xmlns="http://www.w3.org/2000/svg" xmlns:xlink="http://www.w3.org/1999/xlink" x="0px" y="0px"
	 width="208.75px" height="56.295px" viewBox="0 0 208.75 56.295" enable-background="new 0 0 208.75 56.295" xml:space="preserve">
<path fill="#F4E800" d="M18.459,24.1c-0.996,1.078-2.218,1.892-3.665,2.437c-1.447,0.545-3.032,0.815-4.755,0.815
	c-2.941,0-5.227-0.91-6.855-2.732c-1.629-1.822-2.467-4.475-2.514-7.954V12.06c0-3.527,0.771-6.243,2.312-8.147
	C4.523,2.008,6.77,1.055,9.723,1.055c2.777,0,4.872,0.686,6.284,2.057c1.412,1.371,2.229,3.521,2.452,6.451h-5.027
	c-0.141-1.629-0.48-2.739-1.02-3.331c-0.54-0.592-1.383-0.888-2.531-0.888c-1.395,0-2.408,0.51-3.041,1.529
	c-0.633,1.019-0.961,2.643-0.984,4.869v4.641c0,2.332,0.349,4.028,1.046,5.09c0.697,1.062,1.843,1.59,3.437,1.59
	c1.02,0,1.846-0.205,2.479-0.613l0.457-0.316v-4.691H9.652v-3.902h8.807V24.1z"/>
<path fill="#F4E800" d="M29.867,17.648h-2.566V27h-5.168V1.407h8.244c2.59,0,4.591,0.671,6.003,2.013
	c1.412,1.342,2.118,3.249,2.118,5.722c0,3.398-1.236,5.777-3.709,7.137l4.482,10.476V27h-5.555L29.867,17.648z M27.301,13.342h2.936
	c1.031,0,1.805-0.343,2.32-1.028c0.515-0.685,0.773-1.603,0.773-2.751c0-2.566-1.002-3.85-3.006-3.85h-3.023V13.342z"/>
<path fill="#F4E800" d="M60.066,16.506c0,3.434-0.812,6.1-2.435,7.998s-3.876,2.848-6.759,2.848c-2.871,0-5.127-0.938-6.768-2.821
	c-1.641-1.882-2.473-4.515-2.496-7.9v-4.377c0-3.516,0.814-6.261,2.443-8.235c1.629-1.974,3.891-2.962,6.785-2.962
	c2.848,0,5.092,0.97,6.732,2.909c1.64,1.939,2.473,4.661,2.496,8.165v4.377L60.066,16.506L60.066,16.506z M54.881,12.217
	c0-2.309-0.328-4.025-0.984-5.15c-0.656-1.125-1.676-1.688-3.059-1.688c-1.371,0-2.385,0.542-3.041,1.626
	c-0.656,1.084-0.996,2.733-1.02,4.948v4.553c0,2.238,0.334,3.889,1.002,4.948s1.699,1.591,3.094,1.591
	c1.348,0,2.35-0.52,3.006-1.556c0.656-1.037,0.99-2.646,1.002-4.825V12.217z"/>
<path fill="#F4E800" d="M80.422,1.407v17.719c-0.023,2.66-0.756,4.696-2.197,6.108s-3.51,2.117-6.205,2.117
	c-2.742,0-4.837-0.716-6.284-2.145c-1.447-1.432-2.171-3.498-2.171-6.205V1.407h5.203V19.02c0,1.453,0.234,2.49,0.703,3.111
	c0.469,0.621,1.318,0.932,2.549,0.932s2.074-0.308,2.531-0.922c0.457-0.615,0.691-1.627,0.703-3.033V1.408L80.422,1.407
	L80.422,1.407z"/>
<path fill="#F4E800" d="M97.543,16.559H89.51V27h-5.168V1.407H98.51v4.307h-9v6.557h8.033V16.559z"/>
<path fill="#F4E800" d="M119.48,16.506c0,3.434-0.812,6.1-2.435,7.998s-3.876,2.848-6.759,2.848c-2.871,0-5.127-0.938-6.768-2.821
	c-1.641-1.882-2.473-4.515-2.496-7.9v-4.377c0-3.516,0.814-6.261,2.443-8.235c1.629-1.974,3.891-2.962,6.785-2.962
	c2.848,0,5.092,0.97,6.732,2.909s2.473,4.661,2.496,8.165v4.377L119.48,16.506L119.48,16.506z M114.295,12.217
	c0-2.309-0.328-4.025-0.984-5.15c-0.656-1.125-1.676-1.688-3.059-1.688c-1.371,0-2.385,0.542-3.041,1.626
	c-0.656,1.084-0.996,2.733-1.02,4.948v4.553c0,2.238,0.334,3.889,1.002,4.948s1.699,1.591,3.094,1.591
	c1.348,0,2.35-0.52,3.006-1.556c0.656-1.037,0.99-2.646,1.002-4.825V12.217z"/>
<g>
	<path fill="none" stroke="#FFFFFF" stroke-miterlimit="10" d="M14.887,50.705H7.838l-1.371,5.238H1l7.998-25.593h4.729
		l8.051,25.593h-5.52L14.887,50.705z M8.963,46.399h4.781l-2.391-9.123L8.963,46.399z"/>
	<path fill="none" stroke="#FFFFFF" stroke-miterlimit="10" d="M40.516,30.351v17.719c-0.023,2.66-0.756,4.696-2.197,6.108
		c-1.441,1.412-3.51,2.117-6.205,2.117c-2.742,0-4.837-0.716-6.284-2.145c-1.447-1.432-2.171-3.498-2.171-6.205V30.351h5.203v17.612
		c0,1.453,0.234,2.49,0.703,3.111c0.469,0.621,1.318,0.932,2.549,0.932s2.074-0.308,2.531-0.922
		c0.457-0.615,0.691-1.627,0.703-3.033V30.352L40.516,30.351L40.516,30.351z"/>
	<path fill="none" stroke="#FFFFFF" stroke-miterlimit="10" d="M61.012,34.656h-6.328v21.287h-5.186V34.656h-6.225v-4.306H61.01
		L61.012,34.656L61.012,34.656z"/>
	<path fill="none" stroke="#FFFFFF" stroke-miterlimit="10" d="M81.508,45.449c0,3.434-0.813,6.1-2.436,7.998
		s-3.875,2.848-6.76,2.848c-2.871,0-5.127-0.938-6.77-2.821c-1.641-1.882-2.473-4.515-2.494-7.9v-4.377
		c0-3.517,0.813-6.261,2.441-8.235C67.12,30.987,69.383,30,72.276,30c2.848,0,5.092,0.969,6.732,2.908
		c1.64,1.939,2.473,4.661,2.496,8.165v4.377L81.508,45.449L81.508,45.449z M76.323,41.16c0-2.309-0.328-4.025-0.984-5.15
		c-0.654-1.125-1.676-1.688-3.059-1.688c-1.371,0-2.385,0.542-3.041,1.626s-0.996,2.733-1.02,4.948v4.553
		c0,2.238,0.334,3.889,1.002,4.948s1.699,1.591,3.094,1.591c1.348,0,2.35-0.52,3.006-1.556c0.656-1.037,0.99-2.646,1.002-4.825
		V41.16L76.323,41.16z"/>
	<path fill="none" stroke="#FFFFFF" stroke-miterlimit="10" d="M101.266,46.592H98.7v9.352h-5.168V30.351h8.244
		c2.59,0,4.59,0.671,6.004,2.013c1.41,1.342,2.116,3.249,2.116,5.723c0,3.397-1.235,5.776-3.709,7.137l4.481,10.476v0.245h-5.555
		L101.266,46.592z M98.7,42.285h2.938c1.029,0,1.804-0.343,2.318-1.027c0.518-0.686,0.773-1.604,0.773-2.752
		c0-2.565-1.002-3.85-3.005-3.85h-3.022v7.629H98.7z"/>
	<path fill="none" stroke="#FFFFFF" stroke-miterlimit="10" d="M126.667,44.869h-8.051v6.785h9.526v4.289h-14.694V30.351h14.659
		v4.307h-9.491v6.047h8.051V44.869L126.667,44.869z"/>
	<path fill="none" stroke="#FFFFFF" stroke-miterlimit="10" d="M149.008,55.943h-5.168l-7.559-16.787v16.787h-5.168V30.351h5.168
		l7.574,16.805V30.351h5.15L149.008,55.943L149.008,55.943z"/>
	<path fill="none" stroke="#FFFFFF" stroke-miterlimit="10" d="M169.223,34.656h-6.328v21.287h-5.186V34.656h-6.225v-4.306h17.736
		L169.223,34.656L169.223,34.656z"/>
	<path fill="none" stroke="#FFFFFF" stroke-miterlimit="10" d="M182.301,50.705h-7.049l-1.371,5.238h-5.467l7.998-25.593h4.729
		l8.051,25.593h-5.52L182.301,50.705z M176.377,46.399h4.781l-2.393-9.123L176.377,46.399z"/>
	<path fill="none" stroke="#FFFFFF" stroke-miterlimit="10" d="M196.75,51.654h9.07v4.289h-14.238V30.351h5.168V51.654z"/>
</g>
</svg>
