<?xml version="1.0" encoding="iso-8859-1"?>
<!-- Generator: Adobe Illustrator 19.0.0, SVG Export Plug-In . SVG Version: 6.00 Build 0)  -->
<svg version="1.1" id="Layer_1" xmlns="http://www.w3.org/2000/svg" xmlns:xlink="http://www.w3.org/1999/xlink" x="0px" y="0px"
	 viewBox="0 0 512 512" style="enable-background:new 0 0 512 512;" xml:space="preserve">
<g>
	<g>
		<g>
			<path d="M297.873,344.146v-19.437c0-10.213-8.31-18.523-18.523-18.523H81.246c-10.213,0-18.523,8.31-18.523,18.523v19.437
				c0,10.213,8.31,18.523,18.523,18.523h198.103C289.563,362.669,297.873,354.359,297.873,344.146z M115.222,346.792H81.245
				c-1.434,0-2.646-1.212-2.646-2.646v-19.437c0-1.434,1.212-2.646,2.646-2.646h33.977V346.792z M172.359,346.792h-41.259v-24.729
				h41.259V346.792z M229.495,346.792h-41.259v-24.729h41.259V346.792z M245.372,322.063h33.977c1.434,0,2.646,1.212,2.646,2.646
				v19.437c0,1.434-1.212,2.646-2.646,2.646h-33.977V322.063z"/>
			<path d="M499.786,463.504h-44.969v-60.942c5.483-1.615,9.499-6.686,9.499-12.686v-17.576c0-7.296-5.935-13.231-13.231-13.231
				h-82.806l-15.087-244.588c-0.053-0.859-0.248-1.677-0.55-2.439c-0.048-0.927-0.115-1.854-0.207-2.781
				c2.882-1.52,5.624-3.325,8.167-5.378c6.612,3.111,13.844,4.736,21.22,4.736c27.531,0,49.928-22.398,49.928-49.93
				c0-27.53-22.397-49.926-49.928-49.926c-11.58,0-22.513,3.896-31.362,11.08c-6.61-3.107-13.837-4.729-21.21-4.729
				c-25.527,0-46.642,19.256-49.579,44.005c-11.021,2.995-20.995,9.234-28.564,17.967c-8.466,9.768-13.39,22.08-14.043,34.948
				c-0.305,0.764-0.502,1.586-0.555,2.448l-6.821,110.592c-2.068-0.536-4.17-0.438-6.089,0.357
				c-3.483,1.443-5.648,4.855-5.648,8.905v22.158c-11.778-11.779-27.077-27.079-27.862-27.862
				c-3.578-3.578-8.206-4.807-12.081-3.201c-3.484,1.443-5.648,4.855-5.648,8.905v22.158
				c-11.779-11.779-27.078-27.079-27.862-27.862c-3.578-3.578-8.205-4.807-12.081-3.201c-3.484,1.443-5.649,4.855-5.649,8.905
				v22.158c-11.778-11.779-27.077-27.079-27.862-27.862c-3.578-3.578-8.206-4.807-12.081-3.201
				c-3.483,1.443-5.648,4.855-5.648,8.905v22.158c-11.778-11.779-27.078-27.079-27.862-27.862
				c-3.578-3.578-8.205-4.807-12.081-3.201c-3.484,1.443-5.648,4.855-5.648,8.905v229.17h-23.37C5.479,463.504,0,468.985,0,475.72
				v15.302c0,6.734,5.479,12.214,12.214,12.214h487.573c6.735,0,12.214-5.48,12.214-12.214V475.72
				C512,468.985,506.521,463.504,499.786,463.504z M448.439,374.946v12.284h-78.422l-0.758-12.284H448.439z M438.94,403.108v60.398
				h-64.219l-3.726-60.398H438.94z M288.471,73.462c3.918-0.597,6.796-3.993,6.744-7.957l-0.014-0.466
				c0-18.774,15.275-34.049,34.051-34.049c6.438,0,12.711,1.813,18.144,5.243c3.181,2.009,7.333,1.508,9.945-1.196
				c6.481-6.704,15.175-10.397,24.48-10.397c18.776,0,34.051,15.275,34.051,34.049c0,18.776-15.275,34.053-34.051,34.053
				c-6.439,0-12.711-1.813-18.142-5.244c-3.181-2.009-7.335-1.51-9.949,1.195c-3.582,3.708-8.005,6.593-12.79,8.342
				c-3.716,1.359-5.864,5.246-5.037,9.115c0.062,0.292,0.108,0.589,0.164,0.882h-82.432
				C256.976,89.966,270.837,76.146,288.471,73.462z M251.898,122.91h85.906l2.903,47.076h-91.714L251.898,122.91z M248.015,185.862
				h93.672l1.01,16.361h-95.691L248.015,185.862z M246.027,218.1h97.65l15.137,245.405h-33.801V275.659
				c0-2.196-0.892-4.184-2.335-5.623c-0.199-0.199-40.125-40.127-41.404-41.405c-3.578-3.578-8.206-4.807-12.081-3.201
				c-3.484,1.443-5.648,4.855-5.648,8.905v22.158c-6.142-6.143-13.228-13.229-18.73-18.73L246.027,218.1z M297.909,267.721H279.42
				v-18.488C284.884,254.696,291.86,261.671,297.909,267.721z M233.829,249.232c5.464,5.464,12.44,12.439,18.488,18.488h-18.488
				V249.232z M188.236,249.232c5.464,5.464,12.439,12.439,18.488,18.488h-18.488V249.232z M142.644,249.232
				c5.464,5.464,12.44,12.439,18.488,18.488h-18.488V249.232z M97.053,249.232c5.464,5.464,12.439,12.439,18.488,18.488H97.053
				V249.232z M51.461,249.232c5.464,5.464,12.439,12.439,18.488,18.488H51.461V249.232z M51.461,283.598h257.674v179.908h-57.477
				v-71.126c0-4.385-3.554-7.939-7.939-7.939H116.876c-4.384,0-7.939,3.553-7.939,7.939v71.126H51.461V283.598z M124.814,439.48
				v-14.289h110.966v14.289H124.814z M235.781,455.357v8.147H124.814v-8.147H235.781z M124.814,409.314v-8.997h110.966v8.997
				H124.814z M496.123,487.359H15.877v-7.978h480.246V487.359z"/>
		</g>
	</g>
</g>
<g>
</g>
<g>
</g>
<g>
</g>
<g>
</g>
<g>
</g>
<g>
</g>
<g>
</g>
<g>
</g>
<g>
</g>
<g>
</g>
<g>
</g>
<g>
</g>
<g>
</g>
<g>
</g>
<g>
</g>
</svg>
